<svg width="742" height="742" xmlns="http://www.w3.org/2000/svg" xmlns:xlink="http://www.w3.org/1999/xlink" xml:space="preserve" overflow="hidden"><g transform="translate(-160 -62)"><path d="M531.046 162.479C381.642 162.479 260.526 283.595 260.526 433 260.526 582.405 381.642 703.521 531.046 703.521 680.451 703.521 801.567 582.405 801.567 433 801.397 283.666 680.38 162.649 531.046 162.479ZM531.046 657.146C407.254 657.146 306.901 556.793 306.901 433 306.901 309.207 407.254 208.854 531.046 208.854 654.839 208.854 755.192 309.207 755.192 433 755.052 556.734 654.78 657.005 531.046 657.146Z" stroke="#FFFFFF" stroke-width="7.72913"/><path d="M531.046 239.771C424.329 239.771 337.817 326.283 337.817 433 337.817 539.717 424.329 626.229 531.046 626.229 637.764 626.229 724.276 539.717 724.276 433 724.156 326.332 637.714 239.89 531.046 239.771ZM473.078 525.75C453.868 525.75 438.296 510.178 438.296 490.969 438.296 471.759 453.868 456.188 473.078 456.188 492.287 456.188 507.859 471.759 507.859 490.969 507.859 510.178 492.287 525.75 473.078 525.75ZM473.078 409.812C453.868 409.812 438.296 394.241 438.296 375.031 438.296 355.822 453.868 340.25 473.078 340.25 492.287 340.25 507.859 355.822 507.859 375.031 507.859 394.241 492.287 409.812 473.078 409.812ZM589.015 525.75C569.806 525.75 554.234 510.178 554.234 490.969 554.234 471.759 569.806 456.188 589.015 456.188 608.224 456.188 623.796 471.759 623.796 490.969 623.796 510.178 608.224 525.75 589.015 525.75ZM589.015 409.812C569.806 409.812 554.234 394.241 554.234 375.031 554.234 355.822 569.806 340.25 589.015 340.25 608.224 340.25 623.796 355.822 623.796 375.031 623.796 394.241 608.224 409.812 589.015 409.812Z" stroke="#FFFFFF" stroke-width="7.72913"/></g></svg>